<svg width="1821" height="273" viewBox="0 0 1821 273" fill="none" xmlns="http://www.w3.org/2000/svg">
<path d="M189.572 15.616V59.108H74.7V113.888H174.632V155.056H74.7V252H22.908V15.616H189.572ZM271.833 15.616V252H219.709V15.616H271.833ZM317.623 252V15.616H370.411L467.687 173.98V15.616H517.487V252H465.695L367.755 93.304V252H317.623ZM1200.31 15.616V252H1148.52V150.076H1051.9V252H1000.11V15.616H1051.9V104.592H1148.52V15.616H1200.31ZM1363.72 15.284L1453.69 252H1399.25L1380.65 199.212H1292.67L1273.42 252H1220.3L1310.27 15.284H1363.72ZM1368.04 161.364L1336.83 73.384L1305.29 161.364H1368.04ZM1525.59 15.616V252H1473.47V15.616H1525.59ZM1571.38 252V15.616H1624.17L1721.45 173.98V15.616H1771.25V252H1719.46L1621.52 93.304V252H1571.38Z" fill="#145374"/>
<path d="M926.09 88.579C910.216 52.83 877.422 52.9866 859.516 55.0191C835.367 59.6428 822.11 78.3995 819.64 89.7663C800.967 190.282 835.15 204.43 853.016 209.519C898.695 222.531 923.836 216.689 926 185C928.164 153.311 961.281 168.913 964.345 180.019C971.197 204.853 957.964 228.413 948.371 237.868C899.4 272.656 836.576 249.948 812.797 234.286C763.579 201.868 763.044 121.85 773.818 80.322C787.146 28.9524 839.015 7.64096 870.208 7.64035C934.015 7.6391 959.948 53.7019 963.074 74.2995C967.977 106.599 931.256 100.214 926.09 88.579Z" fill="#145374"/>
<path d="M848.429 81.3745C769.05 41.6639 650.411 89.8679 617.017 116.259C622.52 140.26 631.5 145.5 652 145.5C672.5 145.5 691.881 118.536 752.021 112.759C825.3 105.719 848.068 143.488 834.952 160.046C800.801 203.159 735.76 180.507 698 152C677.231 136.32 661.352 166.688 668.352 175.184C711.948 228.09 822.496 251.214 868.504 192.443C907.403 142.754 873.182 97.3672 848.429 81.3745Z" fill="url(#paint0_linear_197_588)"/>
<path d="M948.372 237.869C899.401 272.656 836.233 253.356 812.454 237.694C771.946 211.013 764.406 154.192 769.016 111.02L815.016 122.519C809.501 199 839.902 205.915 856.001 210.5C901.68 223.512 929.358 207.583 926.5 185C923.642 162.417 961.356 162.058 965.21 183.21C970.889 214.371 957.965 228.413 948.372 237.869Z" fill="#145374"/>
<rect x="559" y="20.5225" width="44" height="231" fill="#145374"/>
<rect x="559" y="58.5225" width="44" height="173" transform="rotate(-90 559 58.5225)" fill="#145374"/>
<path d="M573 146V102H655.5L652 145.5L573 146Z" fill="#145374"/>
<rect x="559" y="251.522" width="44" height="136" transform="rotate(-90 559 251.522)" fill="#145374"/>
<defs>
<linearGradient id="paint0_linear_197_588" x1="743.526" y1="93.7598" x2="826.426" y2="200.676" gradientUnits="userSpaceOnUse">
<stop stop-color="#145374"/>
<stop offset="0.153846" stop-color="#32799E"/>
<stop offset="0.298077" stop-color="#2E7397"/>
<stop offset="0.8125" stop-color="#0C3E57"/>
</linearGradient>
</defs>
</svg>
