<svg width="1315" height="232" viewBox="0 0 1315 232" fill="none" xmlns="http://www.w3.org/2000/svg">
<path d="M130.188 13.9716V43.8396H51.3V81.4596H119.928V109.732H51.3V176.308H15.732V13.9716H130.188ZM186.68 13.9716V176.308H150.884V13.9716H186.68ZM218.127 176.308V13.9716H254.379L321.183 122.728V13.9716H355.383V176.308H319.815L252.555 67.3236V176.308H218.127Z" fill="#145374"/>
<path d="M619.74 171.993C529.1 125.069 565.533 62.7256 598.478 34.0996C648.05 -5.10949 710.34 16.8431 733.879 31.6277C755.448 49.2487 733.266 67.9674 721.162 60.5875C666.584 27.3108 620.051 54.2893 606.715 76.1403C587.565 107.516 609.566 124.005 620.116 132.445C651.477 157.535 687.372 152.077 719.808 128.594C742.187 112.391 746.585 147.408 734.462 158.458C711.116 179.74 656.322 190.931 619.74 171.993Z" fill="url(#paint0_linear_235_359)"/>
<rect x="385" y="15.8066" width="34" height="161" fill="#145374"/>
<rect x="404" y="50" width="34" height="92" transform="rotate(-90 404 50)" fill="#145374"/>
<path d="M412.849 136.893L413.744 97.2629L470.558 67.6724L479.349 101.1L412.849 136.893Z" fill="#145374"/>
<rect x="385" y="177" width="34" height="84" transform="rotate(-90 385 177)" fill="#145374"/>
<path d="M906.216 13.9716V176.308H870.648V106.312H804.3V176.308H768.732V13.9716H804.3V75.0756H870.648V13.9716H906.216ZM1018.44 13.7436L1080.23 176.308H1042.84L1030.07 140.056H969.648L956.424 176.308H919.944L981.732 13.7436H1018.44ZM1021.4 114.064L999.972 53.6436L978.312 114.064H1021.4ZM1129.61 13.9716V176.308H1093.81V13.9716H1129.61ZM1161.05 176.308V13.9716H1197.3L1264.11 122.728V13.9716H1298.31V176.308H1262.74L1195.48 67.3236V176.308H1161.05Z" fill="#145374"/>
<path d="M562.954 54.6956C533 68 492.273 95.6233 467 108C448.026 117.292 412.027 100.198 433.5 87.5L488.548 57.5L541.678 28.792C600.603 2.88849 634.881 21.3495 655.033 39.9659C709.464 90.2497 666.522 150.713 633.364 167.577C580.132 194.651 516.846 156.911 488.548 135.578C468.577 120.523 491.046 95.4532 508.523 107.135C522.714 116.621 543.482 131.574 562.954 135.578C636.061 150.613 646.877 102.439 643.048 80.5991C630.664 45.2483 592.907 41.3912 562.954 54.6956Z" fill="url(#paint1_linear_235_359)"/>
<path d="M619.74 171.993C529.099 125.069 579 53.9997 585 48.9997L618.5 62.5C611.93 67.3902 609.88 70.9531 606.714 76.1399C587.565 107.515 609.566 124.004 620.116 132.444C651.477 157.535 687.372 152.077 719.807 128.594C742.187 112.391 746.585 147.408 734.462 158.458C711.115 179.74 656.322 190.931 619.74 171.993Z" fill="#145374"/>
<path d="M711.055 143.485C709.467 140.583 710.127 136.966 712.637 134.812L775.698 80.7031C778.549 78.2564 782.824 78.4973 785.383 81.249L799.02 95.9157C801.688 98.7846 801.49 103.274 798.559 105.873C790.82 112.735 776.24 125.564 765.81 134.146C755.479 142.645 739.126 155.053 730.146 161.806C726.749 164.361 721.894 163.293 719.853 159.564L711.055 143.485Z" fill="#145374"/>
<defs>
<linearGradient id="paint0_linear_235_359" x1="629.5" y1="34" x2="776.5" y2="115.5" gradientUnits="userSpaceOnUse">
<stop stop-color="#145374"/>
<stop offset="0.458115" stop-color="#269CDA"/>
<stop offset="1" stop-color="#145374"/>
</linearGradient>
<linearGradient id="paint1_linear_235_359" x1="504.5" y1="56.5" x2="647" y2="141" gradientUnits="userSpaceOnUse">
<stop offset="0.353721" stop-color="#145374"/>
<stop offset="0.618344" stop-color="#1A7EB2"/>
<stop offset="0.884615" stop-color="#145374"/>
</linearGradient>
</defs>
</svg>
