<svg width="1000" height="134" viewBox="0 0 1459 195" fill="none" xmlns="http://www.w3.org/2000/svg">
<path d="M274.188 13.664V43.532H195.3V81.152H263.928V109.424H195.3V176H159.732V13.664H274.188ZM330.68 13.664V176H294.884V13.664H330.68ZM362.127 176V13.664H398.379L465.183 122.42V13.664H499.383V176H463.815L396.555 67.016V176H362.127Z" fill="#145374"/>
<path d="M763.74 171.993C673.1 125.069 709.533 62.7256 742.478 34.0996C792.05 -5.10949 854.34 16.8431 877.879 31.6277C899.448 49.2487 877.266 67.9674 865.162 60.5875C810.584 27.3108 764.051 54.2893 750.715 76.1403C731.565 107.516 753.566 124.005 764.116 132.445C795.477 157.535 831.372 152.077 863.808 128.594C886.187 112.391 890.585 147.408 878.462 158.458C855.116 179.74 800.322 190.931 763.74 171.993Z" fill="url(#paint0_linear_248_505)"/>
<rect x="529" y="15.8066" width="34" height="161" fill="#145374"/>
<rect x="548" y="50" width="34" height="92" transform="rotate(-90 548 50)" fill="#145374"/>
<path d="M556.849 136.893L557.744 97.2629L614.558 67.6724L623.349 101.1L556.849 136.893Z" fill="#145374"/>
<rect x="529" y="177" width="34" height="84" transform="rotate(-90 529 177)" fill="#145374"/>
<path d="M1050.22 13.664V176H1014.65V106.004H948.3V176H912.732V13.664H948.3V74.768H1014.65V13.664H1050.22ZM1162.44 13.436L1224.23 176H1186.84L1174.07 139.748H1113.65L1100.42 176H1063.94L1125.73 13.436H1162.44ZM1165.4 113.756L1143.97 53.336L1122.31 113.756H1165.4ZM1273.61 13.664V176H1237.81V13.664H1273.61ZM1305.05 176V13.664H1341.3L1408.11 122.42V13.664H1442.31V176H1406.74L1339.48 67.016V176H1305.05Z" fill="#145374"/>
<path d="M706.954 54.6956C677 68 636.273 95.6233 611 108C592.026 117.292 556.027 100.198 577.5 87.5L632.548 57.5L685.678 28.792C744.603 2.88849 778.881 21.3495 799.033 39.9659C853.464 90.2497 810.522 150.713 777.364 167.577C724.132 194.651 660.846 156.911 632.548 135.578C612.577 120.523 635.046 95.4532 652.523 107.135C666.714 116.621 687.482 131.574 706.954 135.578C780.061 150.613 790.877 102.439 787.048 80.5991C774.664 45.2483 736.907 41.3912 706.954 54.6956Z" fill="url(#paint1_linear_248_505)"/>
<path d="M763.74 171.993C673.099 125.069 723 53.9997 729 48.9997L762.5 62.5C755.93 67.3902 753.88 70.9531 750.714 76.1399C731.565 107.515 753.566 124.004 764.116 132.444C795.477 157.535 831.372 152.077 863.807 128.594C886.187 112.391 890.585 147.408 878.462 158.458C855.115 179.74 800.322 190.931 763.74 171.993Z" fill="#145374"/>
<path d="M855.055 143.485C853.467 140.583 854.127 136.966 856.637 134.812L919.698 80.7031C922.549 78.2564 926.824 78.4973 929.383 81.249L943.02 95.9157C945.688 98.7846 945.49 103.274 942.559 105.873C934.82 112.735 920.24 125.564 909.81 134.146C899.479 142.645 883.126 155.053 874.146 161.806C870.749 164.361 865.894 163.293 863.853 159.564L855.055 143.485Z" fill="#145374"/>
<circle cx="80" cy="91" r="40" fill="#145374"/>
<defs>
<linearGradient id="paint0_linear_248_505" x1="773.5" y1="34" x2="920.5" y2="115.5" gradientUnits="userSpaceOnUse">
<stop stop-color="#145374"/>
<stop offset="0.458115" stop-color="#269CDA"/>
<stop offset="1" stop-color="#145374"/>
</linearGradient>
<linearGradient id="paint1_linear_248_505" x1="648.5" y1="56.5" x2="791" y2="141" gradientUnits="userSpaceOnUse">
<stop offset="0.353721" stop-color="#145374"/>
<stop offset="0.618344" stop-color="#1A7EB2"/>
<stop offset="0.884615" stop-color="#145374"/>
</linearGradient>
</defs>
</svg>
