<svg width="691" height="691" viewBox="0 0 691 691" fill="none" xmlns="http://www.w3.org/2000/svg">
<path d="M346.922 0.0078125C390.564 0.560831 425.838 35.8354 426.391 79.4775L426.397 80.5176V197.897L426.391 198.938C426.385 199.368 426.374 199.797 426.362 200.226C426.357 252.101 357.121 332.636 347.073 344.05C360.868 331.982 440.415 264.422 491.285 265.392C491.349 265.391 491.412 265.389 491.476 265.389L492.517 265.382H609.896L610.937 265.389C654.925 265.946 690.413 301.778 690.413 345.898L690.406 346.939C689.853 390.581 654.579 425.856 610.937 426.408L609.896 426.415H492.517L491.476 426.408C491.048 426.403 490.621 426.392 490.195 426.38C443.389 426.381 373.245 370.006 351.6 351.609C370.004 373.264 426.357 443.388 426.362 490.188C426.374 490.616 426.385 491.046 426.391 491.477L426.397 492.518V609.897L426.391 610.938C425.838 654.579 390.564 689.854 346.922 690.407L345.881 690.414C301.76 690.414 265.928 654.926 265.371 610.938L265.364 609.897V492.518L265.371 491.477C265.372 491.413 265.373 491.348 265.374 491.284C264.408 440.574 331.542 361.368 343.918 347.206C332.03 357.658 251.897 426.382 200.218 426.38C199.792 426.392 199.365 426.403 198.938 426.408L197.896 426.415H80.5166L79.4766 426.408C35.8348 425.855 0.560103 390.581 0.00683594 346.939L0 345.898C0 301.778 35.4881 265.946 79.4766 265.389L80.5166 265.382H197.896L198.938 265.389C199.002 265.389 199.067 265.391 199.132 265.392C253.438 264.359 340.423 341.423 345.206 345.698C345.258 345.652 345.32 345.597 345.391 345.534C345.509 345.401 345.606 345.291 345.681 345.207C341.408 340.426 264.339 253.436 265.374 199.129C265.373 199.065 265.372 199.002 265.371 198.938L265.364 197.897V80.5176L265.371 79.4775C265.928 35.4888 301.76 0 345.881 0L346.922 0.0078125ZM386.397 541.703C361.004 554.091 330.762 554.097 305.364 541.72V609.897C305.365 632.274 323.504 650.414 345.881 650.414C368.257 650.414 386.397 632.274 386.397 609.897V541.703ZM80.5166 305.382C58.1402 305.382 40 323.522 40 345.898C40.0003 368.275 58.1404 386.415 80.5166 386.415H148.71C136.322 361.022 136.317 330.779 148.693 305.382H80.5166ZM541.721 305.382C554.097 330.779 554.092 361.022 541.704 386.415H609.896C632.273 386.415 650.413 368.275 650.413 345.898C650.413 323.522 632.273 305.382 609.896 305.382H541.721ZM345.881 40.001C323.504 40.001 305.364 58.141 305.364 80.5176V148.693C330.761 136.317 361.005 136.322 386.397 148.71V80.5176C386.397 58.141 368.257 40.001 345.881 40.001Z" fill="url(#paint0_linear_247_497)"/>
<defs>
<linearGradient id="paint0_linear_247_497" x1="253.5" y1="106" x2="479" y2="571" gradientUnits="userSpaceOnUse">
<stop offset="0.192308" stop-color="#145374"/>
<stop offset="0.496029" stop-color="#2195D2"/>
<stop offset="0.855769" stop-color="#145374"/>
</linearGradient>
</defs>
</svg>
